<?xml version="1.0" standalone="no"?>
<!DOCTYPE svg PUBLIC "-//W3C//DTD SVG 20010904//EN"
 "http://www.w3.org/TR/2001/REC-SVG-20010904/DTD/svg10.dtd">
<svg version="1.0" xmlns="http://www.w3.org/2000/svg"
 width="1525.000000pt" height="358.000000pt" viewBox="0 0 1525.000000 358.000000"
 preserveAspectRatio="xMidYMid meet">

<g transform="translate(0.000000,358.000000) scale(0.100000,-0.100000)"
fill="#000000" stroke="none">
<path d="M11890 1815 l0 -1645 450 0 450 0 0 1645 0 1645 -450 0 -450 0 0
-1645z"/>
<path d="M12990 1815 l0 -1645 450 0 450 0 0 1645 0 1645 -450 0 -450 0 0
-1645z"/>
<path d="M14090 1815 l0 -1645 445 0 445 0 0 1645 0 1645 -445 0 -445 0 0
-1645z"/>
<path d="M220 1830 l0 -1181 103 3 102 3 3 538 2 537 450 0 450 0 0 100 0 100
-450 0 -450 0 0 440 0 440 555 0 555 0 0 100 0 100 -660 0 -660 0 0 -1180z"/>
<path d="M5892 1833 l3 -1178 105 0 105 0 5 770 c3 424 8 757 12 740 4 -16
128 -363 277 -770 l269 -740 55 -3 55 -3 16 43 c112 301 537 1489 538 1508 2
14 5 -328 8 -760 l5 -785 103 -3 102 -3 0 1181 0 1180 -54 0 c-50 0 -55 -2
-64 -27 -5 -16 -166 -450 -356 -966 -190 -515 -346 -950 -347 -965 0 -20 -4
-14 -14 23 -8 28 -171 473 -362 990 l-348 940 -58 3 -57 3 2 -1178z"/>
<path d="M7990 2875 l0 -135 115 0 115 0 0 135 0 135 -115 0 -115 0 0 -135z"/>
<path d="M11120 2603 l0 -407 -37 36 c-149 145 -402 181 -603 86 -79 -38 -186
-140 -224 -215 -52 -104 -56 -141 -56 -606 0 -480 4 -520 66 -624 92 -152 230
-237 410 -250 162 -12 297 33 408 138 l63 59 57 -85 c50 -75 60 -85 86 -85
l30 0 0 1180 0 1180 -100 0 -100 0 0 -407z m-175 -452 c63 -28 109 -72 143
-136 l27 -50 0 -470 0 -470 -27 -50 c-34 -64 -80 -108 -143 -137 -44 -20 -65
-23 -185 -23 -128 0 -138 2 -192 28 -64 32 -111 80 -142 146 -20 44 -21 63
-24 475 -2 288 1 446 8 482 22 103 105 192 207 220 77 22 265 13 328 -15z"/>
<path d="M2295 2360 c-102 -21 -204 -78 -269 -150 -20 -22 -37 -40 -39 -40 -2
0 -28 38 -58 85 -50 78 -57 85 -87 85 l-32 0 2 -842 3 -843 97 -3 97 -3 3 638
3 638 24 45 c30 58 85 116 136 143 34 18 63 22 185 27 l145 5 3 113 3 112 -88
-1 c-48 -1 -106 -5 -128 -9z"/>
<path d="M3158 2355 c-201 -51 -353 -217 -378 -415 -12 -97 -12 -793 0 -890
26 -200 179 -367 382 -415 73 -17 251 -20 329 -5 148 28 289 136 353 270 36
75 60 181 54 246 l-3 39 -98 16 c-53 8 -99 13 -102 11 -3 -3 -5 -44 -5 -91 0
-69 -5 -96 -24 -137 -29 -63 -78 -113 -142 -145 -44 -22 -61 -24 -184 -24
-120 0 -141 3 -185 23 -60 27 -118 82 -148 137 -20 37 -22 56 -25 273 l-3 232
460 0 461 0 0 213 c0 144 -5 233 -14 279 -37 173 -149 302 -321 368 -51 19
-83 23 -205 26 -103 3 -162 -1 -202 -11z m352 -198 c71 -31 117 -74 149 -138
31 -62 31 -63 31 -221 l0 -158 -356 0 -356 0 4 168 c3 148 6 172 25 207 38 71
120 136 198 156 51 14 266 4 305 -14z"/>
<path d="M4695 2358 c-125 -24 -273 -132 -333 -246 -58 -109 -62 -142 -62
-617 0 -344 3 -442 15 -493 38 -162 160 -296 321 -353 76 -27 268 -37 373 -19
173 29 324 155 384 318 12 35 22 92 25 148 l4 91 -98 14 -99 14 -6 -95 c-6
-111 -33 -175 -95 -230 -73 -64 -113 -75 -264 -75 -128 0 -138 2 -192 28 -64
32 -111 80 -142 146 -19 42 -21 68 -24 269 l-4 222 461 0 461 0 0 233 c0 127
-5 252 -11 277 -40 173 -192 323 -370 365 -72 17 -264 19 -344 3z m353 -208
c68 -29 133 -101 155 -170 13 -39 17 -89 17 -196 l0 -144 -360 0 -360 0 0 130
c0 155 11 215 53 277 68 101 152 134 327 130 93 -3 125 -8 168 -27z"/>
<path d="M9136 2355 c-84 -22 -169 -70 -231 -133 l-54 -54 -56 87 c-53 82 -58
86 -88 83 l-32 -3 0 -840 0 -840 100 0 100 0 5 660 c5 653 5 660 27 700 30 55
88 110 148 137 45 21 65 23 185 22 146 0 169 -6 245 -61 22 -16 54 -54 70 -84
l30 -54 5 -660 5 -660 100 0 100 0 0 655 0 655 -24 65 c-56 154 -153 252 -306
310 -78 29 -243 37 -329 15z"/>
<path d="M8005 2328 c-3 -7 -4 -386 -3 -843 l3 -830 98 -3 97 -3 0 846 0 845
-95 0 c-67 0 -97 -4 -100 -12z"/>
</g>
</svg>
