<svg xmlns="http://www.w3.org/2000/svg" width="2000" height="393"><path d="M1866 1h108v391h-108V1Z" fill="#DCDCDC"/><path d="M1736 1h108v391h-108V1ZM1607 1h107v391h-107V1Z" fill="#DEDEDE"/><path d="M745.563 54.938 748 55c8.826 15.847 17.079 31.933 25.125 48.188a11403.187 11403.187 0 0 0 8.254 16.614 951.616 951.616 0 0 0 11.052 21.42c4.926 9.296 9.575 18.728 14.246 28.153 1.179 2.376 2.36 4.75 3.542 7.125l1.184 2.381c2.37 4.74 4.815 9.43 7.316 14.1 5.917 11.059 11.121 22.377 16.218 33.832 1.256 2.807 2.514 5.613 3.772 8.419.772 1.723 1.543 3.447 2.31 5.172 1.9 4.251 3.86 8.45 5.981 12.596l1.554-3.459c1.965-4.372 3.934-8.742 5.904-13.112.841-1.866 1.68-3.732 2.52-5.599 11.154-24.833 23.149-49.242 35.331-73.583 1.788-3.573 3.574-7.147 5.36-10.72 2.983-5.968 5.967-11.934 8.952-17.9 3.451-6.896 6.899-13.793 10.345-20.691 2.979-5.962 5.96-11.924 8.94-17.884 1.774-3.545 3.546-7.09 5.317-10.635 1.654-3.31 3.31-6.62 4.967-9.929.9-1.796 1.797-3.594 2.694-5.391.53-1.06 1.062-2.118 1.609-3.21l1.402-2.804C943 56 943 56 944 55a99.984 99.984 0 0 1 5 0c4.204 17.959 8.194 35.956 12.05 53.992l1.722 8.026a41720.45 41720.45 0 0 1 3.65 17.031c2.891 13.502 5.788 27.003 8.683 40.503l1.981 9.236a45018.452 45018.452 0 0 0 15.714 72.999c2.659 12.317 5.32 24.634 7.984 36.95 1.02 4.713 2.037 9.426 3.054 14.14.47 2.179.942 4.359 1.415 6.538.64 2.95 1.276 5.901 1.912 8.852l.57 2.623c1.265 5.882 1.265 5.882 1.265 8.11h-43c-6.89-29.632-13.268-59.366-19.598-89.122-1.855-8.721-3.714-17.442-5.574-26.162-1.332-6.252-2.665-12.503-3.995-18.756l-.737-3.462-1.35-6.342-.61-2.867-.575-2.702a652.275 652.275 0 0 0-2.195-9.713c-.452-2.317-.518-4.522-.366-6.874h-2l-.343 2.563c-1.252 6.549-4.025 12.69-6.47 18.875l-.881 2.239c-4.833 12.214-10.36 23.825-16.689 35.343-2.758 5.083-5.392 10.232-8.037 15.375-1.589 3.087-3.184 6.17-4.78 9.253l-1.91 3.699a12403.453 12403.453 0 0 1-23.396 45.041C860.648 311.585 854.824 322.792 849 334c-2.327-.208-2.327-.208-5-1-1.51-2.015-1.51-2.015-2.762-4.68l-1.455-3.011-1.47-3.184c-.96-2.02-1.922-4.038-2.887-6.055l-1.594-3.342c-2.509-5.168-5.223-10.23-7.912-15.305-4.213-7.957-8.325-15.964-12.422-23.981a14539.059 14539.059 0 0 0-7.81-15.252 5189.54 5189.54 0 0 0-11.25-21.815l-1.705-3.295c-2.464-4.755-4.947-9.496-7.506-14.201-8.748-16.17-15.952-33.01-23.227-49.879-2.36 9.003-4.286 18.06-6.079 27.192l-.883 4.458c-.628 3.174-1.255 6.348-1.88 9.522a14628.53 14628.53 0 0 1-2.976 15.051 62713.805 62713.805 0 0 0-6.307 31.902 62196.62 62196.62 0 0 1-6.832 34.55c-.988 4.99-1.974 9.981-2.957 14.972a9634.47 9634.47 0 0 1-1.836 9.28c-.284 1.437-.568 2.875-.85 4.312a2855.81 2855.81 0 0 1-1.161 5.869l-.656 3.321C729 332 729 332 728 334h-43a3561.705 3561.705 0 0 1 10.607-53.462c.721-3.497 1.44-6.994 2.159-10.49 1.548-7.525 3.098-15.05 4.648-22.574l2.893-14.04c3.604-17.502 7.211-35.004 10.82-52.505 2.011-9.748 4.02-19.498 6.028-29.247 2.859-13.88 5.722-27.76 8.589-41.638 1.003-4.858 2.005-9.717 3.006-14.576a14927.13 14927.13 0 0 1 3.498-16.937c.424-2.053.848-4.107 1.27-6.16.569-2.77 1.142-5.538 1.717-8.306l.503-2.464c1.376-6.58 1.376-6.58 4.824-6.663ZM1500 55h41v279h-40c-.438-11.875-.438-11.875-.568-15.617l-.116-2.938-.11-3.015c-.056-2.438-.056-2.438-1.206-4.43l-1.145 1.652c-11.57 15.853-28.615 24.554-47.605 28.036-24.427 2.328-46.664-3.466-66.25-18.375-14.291-11.854-23.89-26.5-29-44.313l-.965-3.191c-6.552-26.058-2.864-56.321 10.652-79.559 13.007-19.904 31.114-31.22 54.313-36.25 22.81-3.51 45.82-.52 65 12.938 6.103 4.733 11.368 9.886 16 16.062V55Zm1 132 1 2Zm-91 17c-12.54 14.492-14.987 31.925-14.195 50.39 1.006 13.45 6.127 27.313 16.195 36.61 13.342 10.643 27.501 12.146 44 11 13.194-2.335 24.114-10.395 32-21 2.008-3.227 3.588-6.474 5-10l.93-2.29c5.428-15.457 3.775-33.83-2.45-48.706-6.75-13.696-16.637-22.406-30.855-27.816-17.977-5.374-37.215-1.236-50.625 11.812ZM436.906 171.402C444.062 178.096 448.68 185.287 453 194l1.238 2.41c6.482 14.189 7.129 29.77 7.075 45.09l-.008 2.235c-.073 12.339-.073 12.339-1.305 17.265H336c3.612 13.84 3.612 13.84 10 26l1.145 1.797c6.35 8.708 17.364 12.135 27.535 13.894 18.609 2.479 37.747-.214 55-7.386 2.837-1.115 5.343-1.762 8.32-2.305 1.74 3.927 3.467 7.86 5.182 11.798.585 1.34 1.174 2.677 1.766 4.013.851 1.92 1.689 3.845 2.525 5.771l1.539 3.507C450 321 450 321 449 324a67.039 67.039 0 0 1-6.875 3.375l-2.155.92C409.952 340.656 372.5 342.66 342 331c-19.742-8.262-34.82-23.098-43-43-8.607-23.365-10.842-50.08-3-74l.65-2.004c7.339-21.837 22.194-37.672 42.35-48.309 29.423-13.957 71.965-13.728 97.906 7.715Zm-87.219 28.786C341.406 208.855 336 219.901 336 232h85c-1.28-18.01-1.28-18.01-10.715-32.688-17.741-14.512-42.704-10.94-60.598.875ZM638.625 172.215c14.98 14.09 22.918 34.522 23.546 54.973.07 3.836.066 7.67.035 11.506-.019 2.396-.02 4.791-.02 7.187l-.018 4.592-.003 2.159c-.03 3.06-.19 5.44-1.165 8.368H537c2.866 10.837 2.866 10.837 7.063 20.688l1.472 2.886c1.323 2.19 2.66 3.653 4.465 5.426v2l1.797.852c1.998 1.041 3.642 2.195 5.453 3.523 16.645 10.292 40.197 8.128 58.488 4.2 5.144-1.307 10.048-3.236 14.942-5.27 2.837-1.115 5.343-1.762 8.32-2.305 1.74 3.927 3.467 7.86 5.182 11.798.585 1.34 1.174 2.677 1.766 4.013.851 1.92 1.689 3.845 2.525 5.771l1.539 3.507C651 321 651 321 650 324a67.039 67.039 0 0 1-6.875 3.375l-2.155.92c-30.018 12.36-67.468 14.362-97.97 2.705-8.084-3.63-15.366-8.127-22-14l-2.715-2.395c-15.466-14.49-24.475-36.32-25.411-57.45-.32-13.318-.592-26.262 3.126-39.155l.809-3.035c6.498-21.92 20.891-39.142 40.726-50.297 30.892-14.871 73.931-15.368 101.09 7.547ZM549 202c-7.391 8.813-10.747 18.723-12 30h85c-.982-17.69-.982-17.69-9.832-32.25C594.1 185.165 566.136 186.952 549 202Z" fill="#89939D"/><path d="M3 55h132v38H46v78h69v37H46v126H3V55Z" fill="#89929E"/><path d="M1285.625 165.188c16.696 13.927 21.77 32.834 23.978 53.727.911 10.234.639 20.545.592 30.808l-.008 7.325c-.008 6.37-.027 12.74-.05 19.111-.02 6.523-.03 13.046-.04 19.57-.02 12.757-.056 25.514-.097 38.271h-41l-.148-19.098c-.036-4.042-.072-8.084-.11-12.127-.06-6.387-.118-12.773-.164-19.16-.037-5.162-.084-10.323-.136-15.484-.018-1.949-.034-3.898-.045-5.846-.067-10.586-.417-21.091-1.31-31.642l-.237-2.851c-.973-10.581-2.52-22.569-9.85-30.792-8.531-6.898-18.535-6.975-29-6-12.656 2.577-24.076 11.654-31.168 22.234-8.043 13.086-9.928 25.948-10.037 41.071l-.03 2.635c-.032 2.835-.057 5.67-.081 8.505l-.063 5.944c-.055 5.185-.105 10.37-.153 15.555-.06 6.237-.126 12.473-.19 18.71-.098 9.449-.187 18.897-.278 28.346h-41V160h41l1 27 6-9c20.755-24.955 65.46-32.783 92.625-12.813Z" fill="#89929D"/><path d="m257.875 154.813 2.355-.038c4.977-.012 9.051.633 13.77 2.225-.603 9.508-1.713 18.884-3.063 28.313l-.564 4.013c-.454 3.225-.912 6.45-1.373 9.674l-1.767-.21c-17.821-2.06-33.036.068-47.546 11.335-7.457 6.922-11.069 17.298-11.883 27.274a244.715 244.715 0 0 0-.123 7.71l-.03 2.93c-.03 3.166-.048 6.33-.065 9.496a7218.48 7218.48 0 0 0-.187 23.975c-.04 5.913-.091 11.826-.141 17.738-.097 11.584-.18 23.168-.258 34.752h-42V160h42l1 27 6-10c11.115-14.721 25.55-22.172 43.875-22.188Z" fill="#89939D"/><path d="M1046 160h43v174h-43V160Z" fill="#88929D"/><path d="M1079.063 75.688c7.245 3.914 11.822 8.7 14.937 16.312 1.917 7.11 1.043 14.524-2.004 21.2-3.844 6.66-9.292 11.933-16.703 14.327-9.602 1.98-18.13.471-26.328-4.847-5.376-4.178-7.849-9.33-9.965-15.68-.78-10.064-.258-16.915 6.25-24.688 9.577-8.053 21.704-11.758 33.813-6.624Z" fill="#89939E"/></svg>